<svg xmlns="http://www.w3.org/2000/svg" width="665.984" height="598.55" viewBox="0 0 665.984 598.55">
  <g id="check-mark" transform="translate(-0.5 485.758)">
    <path id="Path_1" data-name="Path 1" d="M260.9-484.12c-56.638,8.073-107.938,30.077-151.035,64.841C95.157-407.431,70.939-382.172,60-367.459,29.4-326.185,10.916-281.4,2.844-229.575c-3.125,20.832-3.125,65.1,0,85.933C13.39-75.545,42.555-18.387,91.251,29.007c47.133,46.092,109.37,75.257,175.773,82.418,16.275,1.823,49.607,1.823,65.882,0C457.249,98.014,560.5,8.175,590.446-112.393a326.622,326.622,0,0,0,9.114-59.633l.911-14.583H533.808l-.651,5.468c-.391,3.125-1.042,10.807-1.432,17.057C530.162-139.214,521.7-109.007,509.07-83.1,473.785-11.226,406.21,36.038,325.354,45.282c-18.228,2.083-49.867.781-68.747-2.6C178.486,28.1,113.906-24.376,83.96-97.55c-11.979-29.556-16.8-54.815-16.8-89.058,0-49.216,12.239-90.751,38.54-130.2,64.45-96.74,193.35-130.593,299.465-78.772l11.328,5.468,9.244-15.754c5.208-8.593,12.63-21.223,16.536-27.863,4.166-7.161,6.64-12.63,5.989-13.281-2.6-2.474-21.483-11.848-35.285-17.577a319.329,319.329,0,0,0-61.586-17.577C330.432-485.943,281.216-486.984,260.9-484.12Z" fill="#0a3f88"/>
    <path id="Path_2" data-name="Path 2" d="M437.621-317.168,294.659-174.206,234.766-234.1l-59.893-59.893-23.436,23.436L128-247.119l83.329,83.329,83.329,83.329L461.318-247.119,627.976-413.778l-23.046-23.046C592.171-449.584,581.494-460,581.1-460S516.133-395.68,437.621-317.168Z" transform="translate(38.508 7.78)" fill="#fa9d17"/>
  </g>
</svg>
