<svg xmlns="http://www.w3.org/2000/svg" width="429.681" height="512.064" viewBox="0 0 429.681 512.064">
  <g id="security" transform="translate(-41.16 512.064)">
    <path id="Path_1" data-name="Path 1" d="M248.3-509.8c-2.3,1.3-8.4,6-13.5,10.6-43.6,39-94.2,58.3-160.2,61.1-21.7.9-24.8,1.8-29.6,8.8-2.5,3.6-2.5,4.1-3.3,32.2-1.2,40.5-.3,105.8,1.7,126.1C49-214.1,61-170.2,81.1-133.8Q123.25-57.3,211.6-16.7C229.6-8.4,251.9,0,256,0c1.7,0,9.2-2.3,16.7-5.1,48.4-18.1,88-43.1,118.3-74.5C436.7-127.1,460.2-185,468.6-271c2-20.3,2.9-85.6,1.7-126.1-.8-28.1-.8-28.6-3.3-32.2-4.8-7-7.9-7.9-29.6-8.8-66.8-2.8-119-23.1-162.8-63.2C262.4-512.4,256.6-514.3,248.3-509.8Zm17.3,48a267.993,267.993,0,0,0,84.3,45.2c21.2,6.9,40.6,10.6,68,13.1,8.5.8,15.7,1.7,16,2.1,1.3,1.2.6,115.6-.7,128.4-5.3,51.3-13.8,83.8-30.5,116.5-26.6,52.2-72.2,90.6-137.9,116.1L256-37l-8.7-3.4c-59.4-23-104.5-58.4-130.5-102.3-21.4-36.1-32-72.5-38-130.3-1.3-12.8-2-127.2-.7-128.4.3-.4,7.5-1.3,16-2.1,27.4-2.5,46.8-6.2,68-13.1a268.293,268.293,0,0,0,84.3-45.2A93.446,93.446,0,0,1,256-469,93.443,93.443,0,0,1,265.6-461.8Z" fill="#b4b4b6"/>
    <path id="Path_2" data-name="Path 2" d="M323-321.9c-1.4.5-22.6,21.1-47.2,45.7L231-231.6l-20.7-20.6c-19.8-19.6-21-20.6-25.5-21.3A18.042,18.042,0,0,0,165-249.3c1.4,3.7,54.6,57.1,58.7,58.9a18.866,18.866,0,0,0,17.4-1.5c7.1-4.6,103.5-101.9,105.4-106.3,5-12.3-3.2-24.9-16.2-24.7A27.261,27.261,0,0,0,323-321.9Z" fill="#b4b4b6"/>
  </g>
</svg>
