<svg xmlns="http://www.w3.org/2000/svg" width="512" height="512" viewBox="0 0 512 512">
  <g id="Group_1" data-name="Group 1" transform="translate(-242 -182)">
    <path id="Path_2" data-name="Path 2" d="M497,0H357a15,15,0,0,0,0,30H460.787l-173.1,173.1A175,175,0,1,0,308.9,224.317L482,51.213V155a15,15,0,0,0,30,0V15A15,15,0,0,0,497,0ZM277.531,439.531A145,145,0,1,1,320,337,144.055,144.055,0,0,1,277.531,439.531Z" transform="translate(242 182)" fill="#fa9d17"/>
    <path id="Path_1" data-name="Path 1" d="M287.683,203.1A175,175,0,1,0,308.9,224.317C308.59,223.661,290.953,204.544,287.683,203.1ZM277.531,439.531A145,145,0,1,1,320,337,144.055,144.055,0,0,1,277.531,439.531Z" transform="translate(242 182)" fill="#0a3f88"/>
  </g>
</svg>
