<svg xmlns="http://www.w3.org/2000/svg" width="705.389" height="658.292" viewBox="0 0 705.389 658.292">
  <g id="Group_1" data-name="Group 1" transform="translate(-330.305 -163.113)">
    <g id="female" transform="matrix(-0.602, -0.799, 0.799, -0.602, 612.092, 902.067)">
      <path id="Path_3" data-name="Path 3" d="M468.227,183.614C468.227,82.369,385.858,0,284.614,0S101,82.369,101,183.614c0,95.25,72.906,173.784,165.845,182.751V488.057H201.691a17.769,17.769,0,1,0,0,35.538h65.153v65.153a17.769,17.769,0,0,0,35.538,0V523.6h65.153a17.769,17.769,0,0,0,0-35.538H302.383V366.365C395.321,357.4,468.227,278.864,468.227,183.614Zm-331.689,0c0-81.649,66.427-148.076,148.076-148.076s148.076,66.427,148.076,148.076S366.263,331.689,284.614,331.689,136.538,265.263,136.538,183.614Z" transform="translate(0 0)" fill="#bfbfbf"/>
      <path id="Path_2" data-name="Path 2" d="M468.227,183.614C468.227,82.369,385.858,0,284.614,0S101,82.369,101,183.614c0,95.25,72.906,173.784,165.845,182.751,17.44,2.387,35.582-.057,35.538,0C395.321,357.4,468.227,278.864,468.227,183.614Zm-331.689,0c0-81.649,66.427-148.076,148.076-148.076s148.076,66.427,148.076,148.076S366.263,331.689,284.614,331.689,136.538,265.263,136.538,183.614Z" fill="#bfbfbf"/>
    </g>
  </g>
</svg>
