<?xml version="1.0" standalone="no"?>
<!DOCTYPE svg PUBLIC "-//W3C//DTD SVG 20010904//EN"
 "http://www.w3.org/TR/2001/REC-SVG-20010904/DTD/svg10.dtd">
<svg version="1.0" xmlns="http://www.w3.org/2000/svg"
 width="512.000000pt" height="512.000000pt" viewBox="0 0 512.000000 512.000000"
 preserveAspectRatio="xMidYMid meet">

<g transform="translate(0.000000,512.000000) scale(0.100000,-0.100000)"
fill="#fff" stroke="none">
<path d="M2330 5110 c-494 -48 -950 -230 -1350 -538 -195 -150 -448 -432 -594
-662 -63 -99 -186 -351 -230 -471 -49 -134 -102 -340 -128 -499 -31 -195 -31
-565 0 -760 45 -276 116 -498 237 -745 132 -269 269 -460 489 -681 221 -220
412 -357 681 -489 337 -165 660 -247 1035 -261 678 -26 1358 232 1849 701 93
89 111 120 111 195 0 89 -16 111 -247 337 l-217 211 27 54 c75 151 58 269 -68
458 -101 153 -257 289 -413 363 -54 26 -83 32 -147 35 -101 5 -174 -18 -300
-93 -156 -93 -197 -88 -366 46 -231 182 -563 543 -590 641 -17 65 -7 128 29
180 74 108 122 236 122 328 -1 203 -262 519 -536 648 -51 23 -71 27 -154 27
-88 0 -101 -3 -162 -33 -76 -37 -170 -131 -293 -294 -82 -108 -94 -138 -102
-248 -21 -303 223 -791 614 -1226 237 -265 586 -601 788 -759 230 -180 529
-348 736 -414 171 -54 356 -59 448 -11 l44 22 128 -128 c71 -71 129 -131 129
-134 0 -3 -37 -33 -83 -66 -565 -415 -1292 -526 -1948 -298 -1112 386 -1706
1601 -1323 2705 299 860 1109 1439 2014 1439 905 0 1715 -579 2014 -1439 68
-197 116 -458 116 -636 0 -89 16 -145 53 -190 82 -100 237 -101 325 -1 47 54
55 100 48 257 -12 249 -69 530 -152 758 -44 120 -167 372 -230 471 -204 321
-503 620 -824 824 -99 63 -351 186 -471 230 -135 49 -341 102 -494 126 -147
23 -475 34 -615 20z"/>
</g>
</svg>
