<?xml version="1.0" standalone="no"?>
<!DOCTYPE svg PUBLIC "-//W3C//DTD SVG 20010904//EN"
 "http://www.w3.org/TR/2001/REC-SVG-20010904/DTD/svg10.dtd">
<svg version="1.0" xmlns="http://www.w3.org/2000/svg"
 width="512.000000pt" height="512.000000pt" viewBox="0 0 512.000000 512.000000"
 preserveAspectRatio="xMidYMid meet">

<g transform="translate(0.000000,512.000000) scale(0.100000,-0.100000)"
fill="#000000" stroke="none">
<path d="M3644 5101 c-45 -20 -57 -34 -848 -911 -241 -267 -447 -503 -458
-525 -39 -75 -24 -178 36 -243 57 -63 171 -85 248 -48 25 12 165 162 455 489
l418 472 5 -1845 c5 -1692 6 -1847 22 -1875 65 -119 234 -151 334 -63 76 67
68 -119 74 1936 l5 1844 412 -465 c453 -511 449 -507 559 -507 73 0 126 28
168 88 26 37 31 54 34 115 3 66 1 76 -26 117 -16 25 -297 347 -625 716 -524
591 -602 675 -648 698 -62 31 -108 33 -165 7z"/>
<path d="M1315 4603 c-40 -21 -83 -62 -103 -98 -16 -28 -17 -180 -22 -1876
l-5 -1847 -410 461 c-273 307 -423 469 -450 484 -147 82 -314 -16 -315 -185 0
-29 6 -67 14 -85 7 -18 288 -340 624 -717 670 -750 665 -746 762 -737 25 2 61
11 81 21 25 11 227 229 650 697 338 375 625 699 638 721 55 92 21 225 -74 283
-40 25 -59 30 -109 30 -39 -1 -75 -8 -100 -20 -29 -14 -150 -144 -455 -487
l-416 -469 -5 1848 c-5 1714 -6 1850 -22 1879 -20 37 -80 92 -115 105 -38 14
-135 10 -168 -8z"/>
</g>
</svg>
