<svg xmlns="http://www.w3.org/2000/svg" width="484.035" height="511.949" viewBox="0 0 484.035 511.949">
  <g id="Group_1" data-name="Group 1" transform="translate(-13.922)">
    <path id="Path_2" data-name="Path 2" d="M489.675,8.318,389.161,0l-2.475,29.9,55.594,4.6-93.5,93.5a147.265,147.265,0,0,0-185.619,0L135.027,99.857l26.479-26.479L140.293,52.165,113.814,78.644,69.247,34.077l50.5-4.179L117.273,0,21.853,7.9l-7.9,95.42,29.9,2.474,4.179-50.5L92.6,99.858,66.122,126.337,87.335,147.55l26.479-26.479,28.108,28.108a147.243,147.243,0,0,0,99.053,239.569v52.724h-41.18v30h41.18v40.477h30V471.472h41.18v-30h-41.18V388.748a146.106,146.106,0,0,0,89.1-42.365c53.864-53.865,57.178-139.429,9.948-197.2l93.473-93.473,4.6,55.594,29.9-2.474ZM338.859,325.169a117.216,117.216,0,1,1,0-165.769A116.452,116.452,0,0,1,338.859,325.169Z" transform="translate(-0.035)" fill="#bfbfbf"/>
    <path id="Path_1" data-name="Path 1" d="M348.783,127.994a147.265,147.265,0,0,0-185.619,0l-21.242,21.185a147.243,147.243,0,0,0,99.053,239.569h30a146.106,146.106,0,0,0,89.1-42.365c53.864-53.865,57.178-139.429,9.948-197.2Zm-9.924,197.175a117.216,117.216,0,1,1,0-165.769A116.452,116.452,0,0,1,338.859,325.169Z" fill="#bfbfbf"/>
  </g>
</svg>
